<?xml version="1.0" encoding="UTF-8" standalone="no"?>
<svg
   xmlns:dc="http://purl.org/dc/elements/1.1/"
   xmlns:cc="http://creativecommons.org/ns#"
   xmlns:rdf="http://www.w3.org/1999/02/22-rdf-syntax-ns#"
   xmlns:svg="http://www.w3.org/2000/svg"
   xmlns="http://www.w3.org/2000/svg"
   xmlns:sodipodi="http://sodipodi.sourceforge.net/DTD/sodipodi-0.dtd"
   xmlns:inkscape="http://www.inkscape.org/namespaces/inkscape"
   width="21.820498mm"
   height="11.444271mm"
   viewBox="0 0 21.820498 11.444271"
   version="1.1"
   id="svg2503"
   inkscape:version="1.0.1 (3bc2e813f5, 2020-09-07)"
   sodipodi:docname="CogoLogoFinish.svg">
  <defs
     id="defs2497" />
  <sodipodi:namedview
     id="base"
     pagecolor="#ffffff"
     bordercolor="#666666"
     borderopacity="1.0"
     inkscape:pageopacity="0.0"
     inkscape:pageshadow="2"
     inkscape:zoom="11.2"
     inkscape:cx="37.95438"
     inkscape:cy="22.16948"
     inkscape:document-units="mm"
     inkscape:current-layer="layer1"
     inkscape:document-rotation="0"
     showgrid="false"
     inkscape:window-width="1920"
     inkscape:window-height="1017"
     inkscape:window-x="-8"
     inkscape:window-y="-8"
     inkscape:window-maximized="1" />
  <metadata
     id="metadata2500">
    <rdf:RDF>
      <cc:Work
         rdf:about="">
        <dc:format>image/svg+xml</dc:format>
        <dc:type
           rdf:resource="http://purl.org/dc/dcmitype/StillImage" />
        <dc:title></dc:title>
      </cc:Work>
    </rdf:RDF>
  </metadata>
  <g
     inkscape:label="Ebene 1"
     inkscape:groupmode="layer"
     id="layer1"
     transform="translate(-42.926192,-86.278707)">
    <path
       id="path960"
       style="font-style:normal;font-variant:normal;font-weight:normal;font-stretch:normal;font-size:10.5833px;line-height:1.25;font-family:Merienda;-inkscape-font-specification:Merienda;fill:#e1a700;fill-opacity:1;stroke:#e1a700;stroke-width:0;stroke-linecap:round;stroke-linejoin:round;stroke-miterlimit:4;stroke-dasharray:none;stroke-opacity:1;paint-order:normal"
       d="m 57.550371,86.278708 c -0.54703,0 -1.03563,0.13781 -1.46503,0.41341 -0.4235,0.26888 -0.77018,0.63535 -1.04076,1.09915 -0.54703,0.94108 -0.82062,2.056991 -0.82062,3.347601 0,0.934349 0.19418,1.663669 0.58239,2.18798 0.3941,0.52431 0.86716,0.78652 1.42007,0.78652 0.34704,0 0.67972,-0.110971 0.99736,-0.3328 0.31763,-0.22854 0.58199,-0.561461 0.79375,-0.99838 -0.0529,1.37127 -0.22628,2.44021 -0.52039,3.20652 -0.10896,0.28391 -0.25667,0.46 -0.40359,0.63872 l 0.82837,-5.29e-4 c 0.0548,-0.0824 0.11833,-0.154911 0.1664,-0.244951 0.60585,-1.14945 0.90899,-2.74951 0.90899,-4.79971 0,-0.31592 -0.0533,-0.53736 -0.15916,-0.66507 -0.10588,-0.13444 -0.29373,-0.20205 -0.56431,-0.20205 -0.11176,0 -0.22072,0.007 -0.32659,0.0202 l 0.0176,0.252181 0.009,0.252179 c 0,0.658751 -0.14722,1.18626 -0.44132,1.58285 -0.28822,0.389871 -0.62329,0.58498 -1.00562,0.58498 -0.38234,0 -0.70579,-0.19821 -0.97049,-0.5948 -0.25881,-0.396599 -0.38808,-0.94113 -0.38808,-1.633489 0,-0.69908 0.0881,-1.368021 0.26458,-2.0066 0.18234,-0.638591 0.44671,-1.183121 0.79375,-1.633491 0.35292,-0.45037 0.74418,-0.67541 1.17357,-0.67541 0.32351,0 0.57388,0.10065 0.75034,0.3023 0.17646,0.19494 0.26459,0.44373 0.26459,0.74621 0,0.29577 -0.0974,0.55797 -0.29146,0.78652 -0.18823,0.22854 -0.44969,0.34261 -0.78497,0.34261 -0.14116,0 -0.29128,-0.0232 -0.4501,-0.0703 0.24705,0.38987 0.61457,0.58498 1.10278,0.58498 0.33528,0 0.62338,-0.13472 0.86455,-0.403589 0.24704,-0.275611 0.37103,-0.651881 0.37103,-1.129131 0,-0.48398 -0.14431,-0.89433 -0.43253,-1.23042 -0.28234,-0.342822 -0.69682,-0.514182 -1.24385,-0.514182 z" />
    <rect
       style="opacity:0.995;fill:#682101;fill-opacity:1;stroke:none;stroke-width:0.318667;stroke-linecap:round;stroke-linejoin:round;stroke-miterlimit:4;stroke-dasharray:none;stroke-opacity:1"
       id="rect853"
       width="1.34645"
       height="16.93911"
       x="95.313721"
       y="-62.171055"
       transform="matrix(0.00120337,0.99999928,-0.99999974,7.1422138e-4,0,0)"
       ry="0" />
    <rect
       style="opacity:0.995;fill:#c00202;fill-opacity:1;stroke:none;stroke-width:0.318667;stroke-linecap:round;stroke-linejoin:round;stroke-miterlimit:4;stroke-dasharray:none;stroke-opacity:1"
       id="rect855"
       width="1.3464572"
       height="2.4597404"
       x="95.313721"
       y="-64.630806"
       transform="matrix(0.00120337,0.99999928,-0.99999974,7.1422138e-4,0,0)"
       ry="0.34808028" />
    <rect
       style="opacity:0.995;fill:#d5d8d8;fill-opacity:1;stroke:none;stroke-width:43.6615;stroke-linecap:round;stroke-linejoin:round;stroke-miterlimit:4;stroke-dasharray:none;stroke-opacity:1"
       id="rect857"
       width="1.3464566"
       height="0.39244652"
       x="95.313721"
       y="-62.543289"
       transform="matrix(0.00120337,0.99999928,-0.99999974,7.1422138e-4,0,0)" />
    <path
       sodipodi:type="star"
       style="opacity:0.995;fill:#c08b21;fill-opacity:1;stroke:none;stroke-width:0.264999;stroke-linecap:round;stroke-linejoin:round;stroke-miterlimit:4;stroke-dasharray:none;stroke-opacity:1"
       id="path861"
       sodipodi:sides="3"
       sodipodi:cx="121.75558"
       sodipodi:cy="191.68118"
       sodipodi:r1="1.1767845"
       sodipodi:r2="0.58839226"
       sodipodi:arg1="0.69420564"
       sodipodi:arg2="1.7414032"
       inkscape:flatsided="true"
       inkscape:rounded="0"
       inkscape:randomized="0"
       inkscape:transform-center-x="0.1716092"
       inkscape:transform-center-y="0.0079898004"
       transform="matrix(-1.0506183,0.42259745,-0.8793134,-0.50399551,341.00489,141.11175)"
       d="m 122.66001,192.43406 -2.00866,-0.34605 1.30402,-1.56653 z" />
    <path
       sodipodi:type="star"
       style="opacity:0.995;fill:#3a342e;fill-opacity:1;stroke:none;stroke-width:0.264999;stroke-linecap:round;stroke-linejoin:round;stroke-miterlimit:4;stroke-dasharray:none;stroke-opacity:1"
       id="path861-6"
       sodipodi:sides="3"
       sodipodi:cx="121.75558"
       sodipodi:cy="191.68118"
       sodipodi:r1="1.1768219"
       sodipodi:r2="0.58839226"
       sodipodi:arg1="0.69415504"
       sodipodi:arg2="1.7413526"
       inkscape:flatsided="true"
       inkscape:rounded="0"
       inkscape:randomized="0"
       inkscape:transform-center-x="0.051173637"
       inkscape:transform-center-y="0.0023742047"
       transform="matrix(-0.31328943,0.12601658,-0.26220712,-0.15028909,131.81188,109.42519)"
       d="m 122.66008,192.43404 -2.00874,-0.34597 1.30398,-1.56663 z" />
    <path
       d="m 45.259577,94.556919 q -0.979365,0 -1.64992,-0.90746 -0.670556,-0.90747 -0.670556,-2.641721 0,-1.280529 0.361747,-2.32916 0.361747,-1.0587 1.129357,-1.72417 0.776433,-0.67555 1.746974,-0.67555 0.970541,0 1.411696,0.54448 0.441155,0.53438 0.441155,1.23011 0,0.69572 -0.308809,1.1192 -0.308808,0.413401 -0.802902,0.413401 -0.158815,0 -0.388216,-0.0807 0.202931,-0.241991 0.352924,-0.675561 0.158815,-0.44364 0.158815,-0.8873 0,-0.44364 -0.211754,-0.756209 -0.202931,-0.322651 -0.652909,-0.322651 -0.679379,0 -1.217588,0.6453 -0.529386,0.63523 -0.802902,1.57294 -0.264693,0.927621 -0.264693,1.915741 0,1.391449 0.467624,2.087169 0.467625,0.685641 1.208765,0.685641 0.494093,0 1.014657,-0.34282 0.520562,-0.342821 0.85584,-0.988121 0.132346,0 0.247047,0.0907 0.1147,0.0907 0.1147,0.181481 -0.494094,1.068789 -1.244057,1.48219 -0.652909,0.36299 -1.296995,0.36299 z"
       style="font-style:normal;font-variant:normal;font-weight:normal;font-stretch:normal;font-size:10.5833px;line-height:1.25;font-family:Merienda;-inkscape-font-specification:Merienda;fill:#e1a700;fill-opacity:1;stroke:#e1a700;stroke-width:0;stroke-linecap:round;stroke-linejoin:round;stroke-miterlimit:4;stroke-dasharray:none;stroke-opacity:1;paint-order:normal"
       id="path880" />
    <path
       d="m 52.30039,91.098488 q 0,-0.988129 -0.220577,-1.411619 -0.211754,-0.43356 -0.617616,-0.43356 -0.39704,0 -0.802902,0.45373 -0.405863,0.44366 -0.644087,1.109119 -0.2294,0.655391 -0.2294,1.371281 0,0.7058 0.238223,1.230119 0.238224,0.51422 0.723495,0.51422 0.688201,0 1.120533,-0.927629 0.432331,-0.92762 0.432331,-1.905661 z m -2.558697,-0.39324 q 0.335277,-1.08895 0.899955,-1.58301 0.573502,-0.50415 1.155826,-0.50415 0.591146,0 0.979366,0.59489 0.388211,0.584811 0.388211,1.593101 0,1.109119 -0.370571,2.05691 -0.41468,1.04863 -1.199937,1.46202 -0.423509,0.23191 -0.935248,0.23191 -0.714671,0 -1.252881,-0.675551 -0.538209,-0.685639 -0.538209,-1.946 0,-1.270449 0.476448,-2.19808 0.476447,-0.92762 1.296995,-1.29061 0.176462,0 0.176462,0.20165 -0.873486,0.6554 -1.076417,2.05692 z"
       style="font-style:normal;font-variant:normal;font-weight:normal;font-stretch:normal;font-size:10.5833px;line-height:1.25;font-family:Merienda;-inkscape-font-specification:Merienda;fill:#e1a700;fill-opacity:1;stroke:#e1a700;stroke-width:0;stroke-linecap:round;stroke-linejoin:round;stroke-miterlimit:4;stroke-dasharray:none;stroke-opacity:1;paint-order:normal"
       id="path882" />
    <path
       id="path884"
       style="font-style:normal;font-variant:normal;font-weight:normal;font-stretch:normal;font-size:10.5833px;line-height:1.25;font-family:Merienda;-inkscape-font-specification:Merienda;fill:#e1a700;fill-opacity:1;stroke:#e1a700;stroke-width:0;stroke-linecap:round;stroke-linejoin:round;stroke-miterlimit:4;stroke-dasharray:none;stroke-opacity:1;paint-order:normal"
       d="m 57.921921,96.626909 -0.82837,5.29e-4 c -0.24961,0.30366 -0.53432,0.51057 -0.89348,0.51057 -0.57056,0 -0.85577,-0.40673 -0.85577,-1.220091 0,-0.389869 0.12638,-0.783179 0.37931,-1.179769 -0.14117,-0.114271 -0.29419,-0.17105 -0.45889,-0.17105 -0.25881,0 -0.47621,0.1244 -0.65267,0.373109 -0.17058,0.255431 -0.2558,0.60125 -0.2558,1.03817 0,0.443661 0.14721,0.84367 0.44132,1.199931 0.2941,0.36298 0.7318,0.54467 1.31413,0.54467 0.42939,0 0.81194,-0.12439 1.14722,-0.373101 0.2637,-0.19225 0.47662,-0.442359 0.663,-0.722949 z" />
    <path
       d="m 63.805691,91.098488 q 0,-0.988129 -0.22058,-1.411619 -0.21175,-0.43356 -0.61762,-0.43356 -0.39704,0 -0.8029,0.45373 -0.40586,0.44366 -0.64409,1.109119 -0.2294,0.655391 -0.2294,1.371281 0,0.7058 0.23823,1.230119 0.23822,0.51422 0.72349,0.51422 0.6882,0 1.12054,-0.927629 0.43233,-0.92762 0.43233,-1.905661 z m -2.5587,-0.39324 q 0.33528,-1.08895 0.89995,-1.58301 0.57351,-0.50415 1.15583,-0.50415 0.59115,0 0.97936,0.59489 0.38822,0.584811 0.38822,1.593101 0,1.109119 -0.37057,2.05691 -0.41469,1.04863 -1.19994,1.46202 -0.42351,0.23191 -0.93525,0.23191 -0.71467,0 -1.25288,-0.675551 -0.53821,-0.685639 -0.53821,-1.946 0,-1.270449 0.47645,-2.19808 0.47645,-0.92762 1.29699,-1.29061 0.17647,0 0.17647,0.20165 -0.87349,0.6554 -1.07642,2.05692 z"
       style="font-style:normal;font-variant:normal;font-weight:normal;font-stretch:normal;font-size:10.5833px;line-height:1.25;font-family:Merienda;-inkscape-font-specification:Merienda;fill:#e1a700;fill-opacity:1;stroke:#e1a700;stroke-width:0;stroke-linecap:round;stroke-linejoin:round;stroke-miterlimit:4;stroke-dasharray:none;stroke-opacity:1;paint-order:normal"
       id="path886" />
  </g>
</svg>
